<?xml version="1.0" encoding="iso-8859-1"?>
<!-- Generator: Adobe Illustrator 17.1.0, SVG Export Plug-In . SVG Version: 6.00 Build 0)  -->
<!DOCTYPE svg PUBLIC "-//W3C//DTD SVG 1.1//EN" "http://www.w3.org/Graphics/SVG/1.1/DTD/svg11.dtd">
<svg version="1.1" id="Capa_1" xmlns="http://www.w3.org/2000/svg" xmlns:xlink="http://www.w3.org/1999/xlink" x="0px" y="0px"
	 viewBox="0 0 418.112 418.112" style="enable-background:new 0 0 418.112 418.112;" xml:space="preserve">
<path d="M236.838,239.907c4.966-2.417,7.033-8.402,4.616-13.368c-8.3-17.055-22.745-30.356-41.773-38.467
	c-17.089-7.283-37.066-9.863-56.251-7.257c-38.712,5.253-66.675,29.649-72.975,63.666L46.882,371.715
	c-0.542,2.921,0.245,5.998,2.145,8.282s4.717,3.671,7.688,3.671h113.897c5.523,0,10-4.478,10-10c0-5.523-4.477-10-10-10H68.738
	L90.086,248.19c3.446-18.607,15.312-33.13,33.312-41.228v29.706h-3.767c-4.871,0-9.034,3.417-9.856,8.219l-13.198,77.028
	c-0.932,5.443,2.725,10.589,8.168,11.521c5.445,0.932,10.612-2.737,11.544-8.181l11.775-68.768l69.529-0.005
	c5.523,0,10-4.385,10-9.907c0-5.523-4.478-9.907-10-9.907h-4.196v-29.313c13,5.683,23.491,14.783,29.892,27.937
	C225.706,240.257,231.871,242.324,236.838,239.907z M173.398,236.668h-30v-35.636c1-0.145,7.32-0.943,9.815-1.065
	c6.658-0.326,13.638,0.072,20.185,1.277V236.668z M333.852,291.473c-6.111-23.94-28.054-41.654-53.386-41.654
	c-30.397,0-55.068,24.73-55.068,55.129v103.165c0,5.522,4.477,10,10,10s10-4.478,10-10V304.947c0-19.37,15.63-35.129,35-35.129
	c14.56,0,27.433,9.183,32.667,22.177c-19.843,4.478-34.667,22.246-34.667,43.422v23.371c0,5.522,4.272,9.88,9.795,9.88h4.205v21.639
	c0,5.522,4.477,10,10,10s10-4.478,10-10v-21.639h22.785l0.001,21.58c0,5.522,4.478,10.029,10,10.029s10-4.523,10-10.046
	l-0.001-21.563h5.943c5.523,0,10.271-4.357,10.271-9.88v-23.371C371.398,313.29,355.032,294.883,333.852,291.473z M351.398,348.668
	h-53v-13.251c0-13.515,10.791-24.749,24.306-24.749h3.912c13.515,0,24.782,11.234,24.782,24.749V348.668z M124.208,149.534
	c10.718,6.368,22.735,9.552,34.753,9.552s24.036-3.185,34.754-9.552c25.498-15.148,39.325-45.114,37.937-82.214
	c-1.432-38.276-28.545-59.703-57.375-65.917c-6.254-2.235-23.665-1.301-27.669-0.585C116.701,6.169,87.752,27.734,86.269,67.32
	C84.881,104.421,98.709,134.387,124.208,149.534z M158.958,19.32c25.116,1.012,50.862,16.348,52.651,47.348h-7.379
	c-11.391-13-27.63-20.455-45.305-20.454c-17.637,0.001-33.848,7.454-45.23,20.454h-7.384
	C108.104,35.668,133.847,20.332,158.958,19.32z M118.493,86.668c3.188,0,6.185-1.412,8.068-3.984
	c7.613-10.396,19.41-16.306,32.366-16.307c12.999-0.001,24.823,5.882,32.44,16.282c1.883,2.571,4.88,4.01,8.067,4.01h11.3
	c-2.984,21-12.473,36.794-27.234,45.563c-15.136,8.992-33.941,8.938-49.077-0.054c-14.762-8.77-24.251-24.509-27.236-45.509H118.493
	z"/>
<g>
</g>
<g>
</g>
<g>
</g>
<g>
</g>
<g>
</g>
<g>
</g>
<g>
</g>
<g>
</g>
<g>
</g>
<g>
</g>
<g>
</g>
<g>
</g>
<g>
</g>
<g>
</g>
<g>
</g>
</svg>
