<?xml version="1.0" encoding="iso-8859-1"?>
<!-- Generator: Adobe Illustrator 16.0.0, SVG Export Plug-In . SVG Version: 6.00 Build 0)  -->
<!DOCTYPE svg PUBLIC "-//W3C//DTD SVG 1.1//EN" "http://www.w3.org/Graphics/SVG/1.1/DTD/svg11.dtd">
<svg version="1.1" id="Capa_1" xmlns="http://www.w3.org/2000/svg" xmlns:xlink="http://www.w3.org/1999/xlink" x="0px" y="0px"
	 width="67.637px" height="67.637px" viewBox="0 0 67.637 67.637" style="enable-background:new 0 0 67.637 67.637;"
	 xml:space="preserve">
<g>
	<g>
		<path d="M40.303,63.148H28.333c-1.239,0-2.244,1.006-2.244,2.244c0,1.239,1.005,2.244,2.244,2.244h11.969
			c1.238,0,2.244-1.005,2.244-2.244C42.547,64.154,41.541,63.148,40.303,63.148z"/>
		<path d="M40.303,57.414H28.333c-1.239,0-2.244,1.005-2.244,2.244c0,1.24,1.005,2.244,2.244,2.244h11.969
			c1.238,0,2.244-1.004,2.244-2.244C42.547,58.419,41.541,57.414,40.303,57.414z"/>
		<path d="M33.819,0C20.516,0,9.693,10.822,9.693,24.125c0,7.787,6.428,16.992,11.818,23.343c2.736,3.226,3.719,4.751,4.064,5.39
			c-0.014,0.102-0.021,0.207-0.021,0.313c0,1.239,1.004,2.244,2.244,2.244h13.002c0.012-0.001,0.021,0,0.031,0
			c1.238,0,2.243-1.005,2.243-2.244c0-0.312-0.063-0.608-0.179-0.878c0.219-0.508,0.714-1.467,1.824-3.102
			c0.912-1.34,1.89-2.725,2.882-4.129c5.084-7.201,10.341-14.647,10.341-20.938C57.944,10.822,47.123,0,33.819,0z M43.938,42.473
			c-1.009,1.428-2,2.833-2.929,4.197c-1.196,1.761-1.981,3.134-2.4,4.256h-8.983c-0.715-1.402-2.146-3.363-4.691-6.363
			c-6.934-8.166-10.751-15.426-10.751-20.438c0-10.828,8.809-19.637,19.637-19.637c10.827,0,19.638,8.809,19.638,19.637
			C53.457,28.99,48.399,36.154,43.938,42.473z"/>
	</g>
</g>
<g>
</g>
<g>
</g>
<g>
</g>
<g>
</g>
<g>
</g>
<g>
</g>
<g>
</g>
<g>
</g>
<g>
</g>
<g>
</g>
<g>
</g>
<g>
</g>
<g>
</g>
<g>
</g>
<g>
</g>
</svg>
